<svg width="150" height="36" viewBox="0 0 150 36" fill="none" xmlns="http://www.w3.org/2000/svg">
<path fill-rule="evenodd" clip-rule="evenodd" d="M125.462 26.3379C127.314 26.3379 129.116 27.3234 129.116 30.0088C129.116 32.4692 127.425 33.8037 125.423 33.8037C124.984 33.8037 124.6 33.7641 124.283 33.6797V36H122.664V26.9854C123.337 26.6644 124.467 26.333 125.468 26.333L125.462 26.3379ZM125.468 27.7178C125.04 27.7178 124.6 27.7852 124.288 27.9541V32.2217C124.605 32.3906 125.028 32.4472 125.456 32.4473L125.451 32.4414C126.674 32.4412 127.486 31.5346 127.486 30.0371C127.486 28.5397 126.691 27.7292 125.468 27.7178Z" fill="#181E15"/>
<path d="M144.605 26.4619C145.223 28.0778 145.884 29.7446 146.529 31.4111C147.08 29.8684 147.709 28.1172 148.287 26.4619H150.006L146.296 35.9492H144.55L145.718 33.2354L142.858 26.4619H144.605Z" fill="#181E15"/>
<path d="M100.456 24.1533C101.663 24.1533 102.465 24.3506 102.971 24.7109L102.976 24.7227L102.948 26.3887C102.442 26.0283 101.769 25.7188 100.584 25.7188C98.6876 25.7189 97.4082 26.9014 97.4082 28.917C97.4083 31.2365 98.9773 32.2666 100.651 32.2666C101.474 32.2666 102.27 32.1146 102.998 31.5967L103.025 33.252C102.558 33.5728 101.763 33.809 100.501 33.8203C97.0916 33.8597 95.5674 31.5232 95.5674 28.9502C95.5676 26.3774 97.4085 24.1816 100.456 24.1533Z" fill="#181E15"/>
<path fill-rule="evenodd" clip-rule="evenodd" d="M70.1055 33.1396C69.4714 33.5 68.4698 33.793 67.4131 33.793C65.4889 33.7928 63.6367 32.6774 63.6367 30.082C63.6369 27.6218 65.4673 26.3662 67.3193 26.3662C67.8809 26.3662 68.2148 26.4055 68.4873 26.5068V24.0469H70.1055V33.1396ZM67.3691 27.7236C66.1456 27.7236 65.2666 28.5847 65.2666 30.043C65.2666 31.501 66.1064 32.4071 67.3965 32.4072V32.4131C67.7969 32.4131 68.2367 32.3565 68.4814 32.2607V27.9482C68.2089 27.8244 67.8752 27.7236 67.3691 27.7236Z" fill="#181E15"/>
<path fill-rule="evenodd" clip-rule="evenodd" d="M74.4883 26.3555C76.5906 26.3555 78.0039 27.9712 78.0039 30.0713L78.0088 30.0654C78.0088 32.1092 76.6911 33.793 74.4775 33.793C72.075 33.793 70.8907 31.9854 70.8906 30.0938C70.8906 27.9938 72.2527 26.3557 74.4883 26.3555ZM74.4551 27.7178C73.2316 27.7179 72.5312 28.6527 72.5312 30.0264C72.5314 31.293 73.1373 32.4296 74.4941 32.4297C75.6621 32.4297 76.3633 31.4842 76.3633 30.0654C76.3633 28.7592 75.6787 27.7178 74.4551 27.7178Z" fill="#181E15"/>
<path fill-rule="evenodd" clip-rule="evenodd" d="M80.417 26.5859C80.7618 26.4452 81.2123 26.3379 81.8018 26.3379C83.2033 26.3379 85.25 27.1322 85.25 29.9248C85.2499 32.7173 83.2033 33.793 81.5293 33.793C80.456 33.7929 79.5938 33.596 78.793 33.1963V24.0469H80.4111L80.417 24.041V26.5859ZM81.5967 27.7178C81.0906 27.7178 80.7173 27.8297 80.417 27.9648V32.2217C80.6895 32.3624 81.1012 32.4297 81.5684 32.4297C82.7473 32.4184 83.6151 31.4956 83.6152 30.0264C83.6152 28.7878 82.9701 27.718 81.5967 27.7178Z" fill="#181E15"/>
<path fill-rule="evenodd" clip-rule="evenodd" d="M107.047 26.3555C109.149 26.3557 110.562 27.9713 110.562 30.0713L110.567 30.0654C110.567 32.1092 109.249 33.793 107.035 33.793C104.633 33.7929 103.448 31.9854 103.448 30.0938C103.448 27.9937 104.811 26.3555 107.047 26.3555ZM107.013 27.7178C105.789 27.718 105.089 28.6527 105.089 30.0264C105.089 31.293 105.695 32.4296 107.052 32.4297C108.22 32.4297 108.921 31.4842 108.921 30.0654C108.921 28.7592 108.236 27.7178 107.013 27.7178Z" fill="#181E15"/>
<path fill-rule="evenodd" clip-rule="evenodd" d="M132.52 26.3496C134.594 26.3496 135.512 27.4082 135.512 29.3281V33.1396C134.672 33.5562 133.81 33.7817 132.614 33.793C130.829 33.7929 129.566 33.0153 129.566 31.3994C129.567 29.7838 130.929 29.1875 132.492 29.1875C133.204 29.1875 133.565 29.2432 133.921 29.3389V29.1309C133.921 28.2977 133.454 27.712 132.259 27.7119C131.53 27.7119 130.734 27.9592 130.184 28.252V26.834C130.79 26.5694 131.546 26.3497 132.52 26.3496ZM132.715 30.499C131.614 30.499 131.19 30.9042 131.19 31.4053C131.19 31.9345 131.575 32.4355 132.676 32.4355L132.67 32.4297C133.22 32.4297 133.643 32.3345 133.921 32.1826V30.668C133.648 30.5836 133.276 30.4991 132.715 30.499Z" fill="#181E15"/>
<path fill-rule="evenodd" clip-rule="evenodd" d="M89.127 26.3555C91.4627 26.3555 92.3417 28.1509 92.3418 29.7217L92.3311 30.1602C92.3227 30.3148 92.3084 30.4682 92.2861 30.5947H87.3691C87.5638 31.6926 88.2762 32.3623 89.7334 32.3623C90.6009 32.3623 91.2571 32.1656 91.8633 31.8223L91.875 33.2236C91.2967 33.5839 90.5122 33.7812 89.5391 33.7812C87.1198 33.7812 85.7345 32.3514 85.7344 29.998C85.7344 27.9937 87.0803 26.3555 89.127 26.3555ZM89.127 27.7119C88.1259 27.712 87.5304 28.2975 87.3691 29.2715L90.79 29.2832C90.7233 28.4218 90.2004 27.7119 89.127 27.7119Z" fill="#181E15"/>
<path d="M48.2988 26.3379C50.3065 26.3492 51.2793 27.453 51.2793 29.3447V33.6689H49.6553V29.457C49.6552 28.4718 49.2829 27.7178 48.0205 27.7178C47.4423 27.7178 47.0752 27.8129 46.7305 28.0098V33.6689H45.1113V27.0752C45.7565 26.7543 46.9418 26.3379 48.2988 26.3379Z" fill="#181E15"/>
<path d="M114.326 26.3379C115.222 26.3379 115.906 26.5353 116.401 26.9238C117.102 26.5748 117.83 26.3376 118.692 26.3545C120.439 26.3545 121.534 27.329 121.534 29.3164V33.6689H119.916V29.3555C119.916 28.3986 119.504 27.7178 118.515 27.7178C117.925 27.7178 117.469 27.8696 117.113 28.0947C117.208 28.4156 117.252 28.7759 117.252 29.1924V33.6689H115.64V29.3164C115.64 28.3706 115.239 27.7178 114.227 27.7178C113.704 27.7178 113.32 27.8022 112.976 27.9541V33.6689H111.356V26.9795C111.974 26.7318 113.058 26.3267 114.326 26.3379Z" fill="#181E15"/>
<path d="M139.812 26.3379C141.819 26.3493 142.792 27.4531 142.792 29.3447V33.6689H141.168V29.457C141.168 28.4718 140.796 27.7178 139.533 27.7178C138.955 27.7178 138.588 27.8129 138.243 28.0098V33.6689H136.624V27.0752C137.269 26.7543 138.454 26.3379 139.812 26.3379Z" fill="#181E15"/>
<path fill-rule="evenodd" clip-rule="evenodd" d="M44.5439 33.6514H42.748L41.9639 31.5635H37.8535L37.0859 33.6514H35.3398L38.9658 24.3506H40.957L44.5439 33.6514ZM38.4375 30.0088H41.3906L39.9053 26.0176L38.4375 30.0088Z" fill="#181E15"/>
<path fill-rule="evenodd" clip-rule="evenodd" d="M63.6992 33.6514H61.9023L61.1182 31.5635H57.0078L56.2402 33.6514H54.4941L58.1201 24.3506H60.1113L63.6992 33.6514ZM57.5918 30.0088H60.5449L59.0605 26.0176L57.5918 30.0088Z" fill="#181E15"/>
<path d="M20.5674 0C25.5951 5.26526e-05 29.7109 4.20025 29.7109 9.2168C29.7109 14.2333 25.7507 18.3041 20.8008 18.4336H7.72559L15.6289 14.1768H0L14.1934 6.53711H6.37891L15.918 1.41895C17.6254 0.518145 19.1603 0 20.5674 0Z" fill="#181E15"/>
<path d="M43.0098 1.19922C46.6192 1.19936 49.7003 3.2041 50.1396 6.63281H46.6855C46.4631 4.85364 44.9504 4.02539 42.9648 4.02539C40.4123 4.0254 38.9388 4.74052 38.9385 5.91699C38.9385 9.01359 50.3785 5.51777 50.3789 12.375C50.3789 16.4738 46.641 17.499 43.0537 17.499C38.5434 17.499 35.3737 15.2694 35.29 11.5312H38.6768C38.7437 13.5578 40.4789 14.6728 43.0537 14.6729C45.4063 14.6729 47.0811 14.0249 47.0811 12.3809C47.0808 9.50967 35.6401 12.6285 35.6396 6.05859C35.6396 2.69732 39.0721 1.20508 43.0098 1.20508V1.19922Z" fill="#181E15"/>
<path d="M105.64 10.4385L105.629 10.4443C105.629 13.2255 107.453 14.5654 109.812 14.5654C112.17 14.5654 113.994 13.2311 113.994 10.4443V1.55371H117.187V10.4385C117.187 14.8468 114.172 17.4988 109.817 17.499C105.463 17.499 102.447 14.847 102.447 10.4385V1.55371H105.64V10.4385Z" fill="#181E15"/>
<path d="M126.196 1.19922C129.806 1.19938 132.887 3.20412 133.326 6.63281H129.872C129.65 4.85365 128.137 4.02539 126.151 4.02539C123.599 4.02539 122.125 4.74051 122.125 5.91699C122.125 9.01359 133.565 5.51777 133.565 12.375C133.565 16.4738 129.828 17.499 126.24 17.499C121.73 17.499 118.56 15.2694 118.477 11.5312H121.863C121.93 13.5578 123.665 14.6728 126.24 14.6729C128.593 14.6729 130.267 14.0249 130.267 12.3809C130.266 9.50967 118.827 12.6285 118.826 6.05859C118.826 2.69732 122.259 1.20508 126.196 1.20508V1.19922Z" fill="#181E15"/>
<path fill-rule="evenodd" clip-rule="evenodd" d="M95.1777 1.55371C98.2812 1.55371 100.984 2.57871 100.984 5.83301C100.984 7.81476 100.061 8.70399 98.6543 9.10938H100.59V17.1494H97.3975V11.4463H90.3789V17.1494H87.1855V1.55371H95.1777ZM90.3789 8.5918H95.1729C96.7133 8.59174 97.7695 8.01155 97.7695 6.49707C97.7694 4.98276 96.7133 4.4024 95.1729 4.40234H90.3789V8.5918Z" fill="#181E15"/>
<path d="M65.0781 4.4082H55.001V7.81445H63.8213V10.6641H55.001V14.2949H65.1895V17.1445H51.8135V1.55371H65.0781V4.4082Z" fill="#181E15"/>
<path d="M75.9844 13.248H75.9902L80.2783 1.55371H84.9893V17.1445H81.8633V6.20996L77.8145 17.1445H74.1602L70.1113 6.23242V17.1445H66.9854V1.55371H71.6963L75.9844 13.248Z" fill="#181E15"/>
<path d="M138.187 7.81445H146.813V1.55371H150.006V17.1445H146.813V10.6641H138.187V17.1445H134.994V1.55371H138.187V7.81445Z" fill="#181E15"/>
</svg>
